<svg width="24" height="24" viewBox="0 0 24 24" fill="none" xmlns="http://www.w3.org/2000/svg">
<g clip-path="url(#clip0_4797_59)">
<path fill-rule="evenodd" clip-rule="evenodd" d="M3.33307 6.65098C5.90121 5.68182 7.84145 5.41072 9.15375 5.83764C10.4661 6.26456 11.6008 6.86973 12.5579 7.65313L10.6565 10.9465L18.7215 8.43764L16.7001 0.478729L14.8929 3.60889C12.9294 2.49589 10.8629 2.23776 8.69342 2.83457C6.52387 3.43137 4.7371 4.7035 3.33307 6.65098Z" fill="#3273F6"/>
<path fill-rule="evenodd" clip-rule="evenodd" d="M22.5753 8.28239C22.1305 10.991 21.3952 12.8069 20.3693 13.7299C19.3434 14.653 18.252 15.3331 17.0949 15.7703L15.1935 12.477L13.3338 20.7158L21.2371 22.9447L19.4299 19.8145C21.3755 18.6706 22.6323 17.0101 23.2002 14.8328C23.7681 12.6555 23.5598 10.4721 22.5753 8.28239Z" fill="#5FBB46"/>
<path fill-rule="evenodd" clip-rule="evenodd" d="M11.5413 24.1309C9.4179 22.3914 8.21299 20.8466 7.92656 19.4967C7.64013 18.1467 7.59687 16.8615 7.79673 15.6408H11.5995L5.39435 9.91077L-0.487549 15.6408H3.12685C3.14469 17.8977 3.95439 19.8164 5.556 21.3969C7.15761 22.9774 9.15269 23.8887 11.5413 24.1309Z" fill="#F4B53F"/>
</g>
<defs>
<clipPath id="clip0_4797_59">
<rect width="24" height="24" fill="white"/>
</clipPath>
</defs>
</svg>
